<svg xmlns="http://www.w3.org/2000/svg" viewBox="0 0 512 512">
  <defs>
    <linearGradient id="bg" x1="0" y1="0" x2="1" y2="1">
      <stop offset="0" stop-color="#3b82f6"/>
      <stop offset="1" stop-color="#1e40af"/>
    </linearGradient>
  </defs>

  <!-- Rounded square background -->
  <rect width="512" height="512" rx="96" fill="url(#bg)"/>

  <!-- Three curved arrows — supply chain cycle -->
  <g fill="none" stroke="rgba(255,255,255,0.93)" stroke-width="26" stroke-linecap="round">
    <path d="M292,140 A155,155 0 0,1 382,305"/>
    <path d="M358,355 A155,155 0 0,1 152,355"/>
    <path d="M130,305 A155,155 0 0,1 222,140"/>
  </g>

  <!-- Arrowheads -->
  <g fill="rgba(255,255,255,0.93)">
    <path d="M382,305 L406,275 L410,322 Z"/>
    <path d="M152,355 L178,328 L162,378 Z"/>
    <path d="M222,140 L200,170 L250,158 Z"/>
  </g>

  <!-- Center hub -->
  <circle cx="256" cy="260" r="54" fill="rgba(255,255,255,0.96)"/>

  <!-- Package / box icon inside hub -->
  <g transform="translate(256,256)" fill="none" stroke="#1e40af" stroke-width="5.5" stroke-linejoin="round" stroke-linecap="round">
    <rect x="-19" y="-8" width="38" height="28" rx="3"/>
    <path d="M-19,-8 L0,-23 L19,-8"/>
    <line x1="0" y1="-23" x2="0" y2="5"/>
  </g>
</svg>
